HIERARCHY
ROOT Hips
{
 OFFSET 0.000000 0.000000 0.000000
 CHANNELS 6 Xposition Yposition Zposition Yrotation Xrotation Zrotation
 JOINT Chest
 {
  OFFSET 0.000000 9.585900 0.002600
  CHANNELS 3 Yrotation Xrotation Zrotation
  JOINT Chest2
  {
   OFFSET 0.000000 9.601200 -0.005300
   CHANNELS 3 Yrotation Xrotation Zrotation
   JOINT Chest3
   {
    OFFSET 0.000000 9.561800 0.000000
    CHANNELS 3 Yrotation Xrotation Zrotation
    JOINT Chest4
    {
     OFFSET 0.000000 9.552100 0.000000
     CHANNELS 3 Yrotation Xrotation Zrotation
     JOINT Neck
     {
      OFFSET 0.000000 14.453000 0.000000
      CHANNELS 3 Yrotation Xrotation Zrotation
      JOINT Head
      {
       OFFSET 0.000000 8.936500 -0.011300
       CHANNELS 3 Yrotation Xrotation Zrotation
       End Site
       {
        OFFSET 0.000000 17.073600 -0.006000
       }
      }
     }
     JOINT RightCollar
     {
      OFFSET -2.921100 9.558500 0.000000
      CHANNELS 3 Yrotation Xrotation Zrotation
      JOINT RightShoulder
      {
       OFFSET -13.519700 0.000000 0.000000
       CHANNELS 3 Yrotation Xrotation Zrotation
       JOINT RightElbow
       {
        OFFSET 0.000000 -29.696600 0.000000
        CHANNELS 3 Yrotation Xrotation Zrotation
        JOINT RightWrist
        {
         OFFSET 0.000000 -24.004700 0.000000
         CHANNELS 3 Yrotation Xrotation Zrotation
         End Site
         {
          OFFSET 0.000000 -17.728500 0.000000
         }
        }
       }
      }
     }
     JOINT LeftCollar
     {
      OFFSET 2.921100 9.558500 0.000000
      CHANNELS 3 Yrotation Xrotation Zrotation
      JOINT LeftShoulder
      {
       OFFSET 13.519700 0.000000 0.000000
       CHANNELS 3 Yrotation Xrotation Zrotation
       JOINT LeftElbow
       {
        OFFSET 0.000000 -29.696600 0.000000
        CHANNELS 3 Yrotation Xrotation Zrotation
        JOINT LeftWrist
        {
         OFFSET 0.000000 -24.004700 0.000000
         CHANNELS 3 Yrotation Xrotation Zrotation
         End Site
         {
          OFFSET 0.000000 -17.728500 0.000000
         }
        }
       }
      }
     }
    }
   }
  }
 }
 JOINT RightHip
 {
  OFFSET -7.771700 -0.012900 -0.001300
  CHANNELS 3 Yrotation Xrotation Zrotation
  JOINT RightKnee
  {
   OFFSET 0.000000 -40.869800 0.001200
   CHANNELS 3 Yrotation Xrotation Zrotation
   JOINT RightAnkle
   {
    OFFSET 0.000000 -39.717900 0.002100
    CHANNELS 3 Yrotation Xrotation Zrotation
    JOINT RightToe
    {
     OFFSET 0.000000 -4.965400 11.033500
     CHANNELS 3 Yrotation Xrotation Zrotation
     End Site
     {
      OFFSET 0.000000 -1.423100 5.872300
     }
    }
   }
  }
 }
 JOINT LeftHip
 {
  OFFSET 7.771700 -0.012900 -0.001300
  CHANNELS 3 Yrotation Xrotation Zrotation
  JOINT LeftKnee
  {
   OFFSET 0.000000 -40.869800 0.001200
   CHANNELS 3 Yrotation Xrotation Zrotation
   JOINT LeftAnkle
   {
    OFFSET 0.000000 -39.717900 0.002100
    CHANNELS 3 Yrotation Xrotation Zrotation
    JOINT LeftToe
    {
     OFFSET 0.000000 -4.965400 11.033500
     CHANNELS 3 Yrotation Xrotation Zrotation
     End Site
     {
      OFFSET 0.000000 -1.423100 5.872300
     }
    }
   }
  }
 }
}
MOTION
Frames: 6
Frame Time: 0.008333
-184.994803 48.936596 12.502341 174.375690 -33.499819 -4.687501 0.568872 19.666110 1.862983 0.062054 2.421382 0.250605 0.057189 3.960808 0.310767 0.517667 16.999196 1.572273 4.322723 14.715912 -2.817853 9.135170 -8.096036 -6.983526 -1.363712 -1.695175 -1.257666 4.427117 -9.299114 -12.889910 -37.813512 -44.892802 89.946290 2.670168 4.222563 -17.267005 -0.779090 -1.624989 1.969946 -7.203249 -4.171332 14.363324 72.234886 -68.175254 -110.137007 5.170908 10.573883 14.705144 2.823316 -52.038873 -4.011398 -177.577027 82.851314 -166.260391 -28.166920 -2.454588 -0.407357 -0.110399 -9.964651 1.030581 -17.082867 -52.369085 22.714405 -74.777793 66.714442 -79.250055 30.549955 7.950747 13.520631 0.013928 -0.108298 0.021537
-185.007308 48.941272 12.495673 174.413243 -33.480472 -4.688980 0.550550 19.657171 1.886169 0.057425 2.421585 0.252697 0.067791 3.964276 0.354613 0.468651 16.988637 1.539350 4.312369 14.738945 -2.821453 9.110611 -8.006352 -6.852506 -1.360316 -1.674030 -1.283454 4.453757 -9.323492 -12.883957 -37.814508 -44.903652 89.930095 2.671207 4.195044 -17.223765 -0.768943 -1.619978 1.969176 -7.199260 -4.161551 14.364894 72.320344 -68.223834 -110.214876 5.197138 10.579291 14.665763 2.770644 -52.049107 -4.056682 -177.830477 82.846435 -166.530785 -28.117765 -2.417389 -0.392324 -0.160217 -10.017878 1.009925 -17.082157 -52.398629 22.674359 -74.791147 66.724429 -79.255725 30.547956 7.956852 13.511275 0.019778 -0.113066 0.028761
-185.017733 48.945245 12.489774 174.438008 -33.462644 -4.691129 0.543654 19.650011 1.919451 0.053078 2.421746 0.249543 0.057459 3.958451 0.339052 0.471709 16.991524 1.608885 4.283094 14.759848 -2.862143 9.089023 -7.911399 -6.727170 -1.371087 -1.675014 -1.360405 4.450828 -9.330983 -12.873475 -37.820928 -44.902167 89.966650 2.681713 4.197267 -17.228140 -0.764991 -1.620622 1.931755 -7.202788 -4.161107 14.373070 72.391454 -68.186648 -110.296141 5.184889 10.594582 14.657138 2.743339 -52.059174 -4.090926 -178.037432 82.846171 -166.754690 -28.064898 -2.371460 -0.369976 -0.152901 -10.069749 0.981367 -17.081572 -52.425105 22.648454 -74.805378 66.735419 -79.263342 30.543417 7.962243 13.508319 0.026812 -0.117539 0.029786
-185.026127 48.949000 12.483631 174.449866 -33.454336 -4.692127 0.549029 19.653766 1.952595 0.049421 2.418990 0.249529 0.048190 3.953718 0.324760 0.474486 16.993969 1.648928 4.272201 14.801842 -2.830785 9.066285 -7.826931 -6.652280 -1.371908 -1.655118 -1.386815 4.433850 -9.351336 -12.877379 -37.835537 -44.878128 90.030658 2.714818 4.204399 -17.200042 -0.761295 -1.621911 1.925409 -7.211342 -4.168607 14.354876 72.369299 -68.204220 -110.284248 5.199598 10.583658 14.648157 2.722613 -52.058222 -4.114851 -178.071089 82.851889 -166.795378 -28.024530 -2.323625 -0.356271 -0.068362 -10.122119 0.943701 -17.078021 -52.441710 22.632697 -74.822581 66.745027 -79.281223 30.545790 7.966316 13.512874 0.026781 -0.125641 0.029423
-185.035019 48.950906 12.478781 174.468318 -33.441212 -4.687577 0.558650 19.657821 2.007301 0.028982 2.408077 0.212876 0.063491 3.961890 0.370127 0.438457 16.983364 1.614035 4.289283 14.887468 -2.721221 9.033634 -7.768605 -6.645278 -1.343155 -1.613121 -1.372303 4.389731 -9.381385 -12.893268 -37.824068 -44.876604 90.034518 2.725689 4.208904 -17.142959 -0.755175 -1.620613 1.940324 -7.218017 -4.175407 14.339385 72.178162 -68.245415 -110.122847 5.215816 10.576020 14.625286 2.705751 -52.053964 -4.162799 -178.527391 82.876726 -167.241410 -28.039626 -2.301094 -0.369239 -0.073846 -10.153132 0.935319 -17.075711 -52.465138 22.609486 -74.848832 66.756163 -79.305297 30.534183 7.966779 13.505600 0.034175 -0.129690 0.035189
-185.037952 48.950745 12.477002 174.495075 -33.417277 -4.716978 0.554549 19.640496 2.054543 0.017882 2.404540 0.193368 0.067056 3.962359 0.378785 0.430497 16.981722 1.609312 4.312617 14.948435 -2.640963 9.004455 -7.686811 -6.598110 -1.328733 -1.598041 -1.368356 4.363881 -9.383656 -12.879165 -37.810021 -44.887022 90.026701 2.723046 4.213769 -17.113699 -0.742046 -1.615981 1.973733 -7.226694 -4.184223 14.358075 72.108050 -68.218314 -110.079556 5.225521 10.580225 14.619184 2.658223 -52.075317 -4.165468 -179.132946 82.906116 -167.839352 -28.055371 -2.198618 -0.395987 -0.093042 -10.245869 0.941135 -17.124859 -52.487317 22.641698 -74.873113 66.759231 -79.329890 30.528110 7.999470 13.495977 0.051464 -0.162742 0.040530
